<svg width="18" height="18" viewBox="0 0 18 18" fill="none" xmlns="http://www.w3.org/2000/svg">
<path d="M13.1666 9.94167V13.0225H11.3808V10.1475C11.3808 9.42584 11.1224 8.93334 10.4758 8.93334C9.98242 8.93334 9.68825 9.26501 9.55908 9.58667C9.51242 9.70167 9.49992 9.86167 9.49992 10.0217V13.0225H7.71325C7.71325 13.0225 7.73742 8.15417 7.71325 7.65001H9.49992V8.41084L9.48825 8.42834H9.49992V8.41084C9.73742 8.04417 10.1608 7.52334 11.1099 7.52334C12.2849 7.52334 13.1666 8.29167 13.1666 9.94167ZM5.84409 5.05917C5.23325 5.05917 4.83325 5.46084 4.83325 5.98751C4.83325 6.50417 5.22159 6.91667 5.82075 6.91667H5.83242C6.45575 6.91667 6.84325 6.50334 6.84325 5.98751C6.83159 5.46084 6.45575 5.05917 5.84409 5.05917ZM4.93909 13.0225H6.72575V7.65001H4.93909V13.0225Z" fill="white"/>
<path d="M3.99996 2.33334C3.55793 2.33334 3.13401 2.50893 2.82145 2.82149C2.50889 3.13405 2.33329 3.55798 2.33329 4.00001V14C2.33329 14.442 2.50889 14.866 2.82145 15.1785C3.13401 15.4911 3.55793 15.6667 3.99996 15.6667H14C14.442 15.6667 14.8659 15.4911 15.1785 15.1785C15.491 14.866 15.6666 14.442 15.6666 14V4.00001C15.6666 3.55798 15.491 3.13405 15.1785 2.82149C14.8659 2.50893 14.442 2.33334 14 2.33334H3.99996ZM3.99996 0.666672H14C14.884 0.666672 15.7319 1.01786 16.357 1.64298C16.9821 2.2681 17.3333 3.11595 17.3333 4.00001V14C17.3333 14.8841 16.9821 15.7319 16.357 16.357C15.7319 16.9821 14.884 17.3333 14 17.3333H3.99996C3.1159 17.3333 2.26806 16.9821 1.64294 16.357C1.01782 15.7319 0.666626 14.8841 0.666626 14V4.00001C0.666626 3.11595 1.01782 2.2681 1.64294 1.64298C2.26806 1.01786 3.1159 0.666672 3.99996 0.666672Z" fill="white"/>
</svg>
