<svg width="24" height="24" viewBox="0 0 24 24" fill="none" xmlns="http://www.w3.org/2000/svg">
<path d="M7.15002 21.1098C6.90002 20.8598 6.77502 20.5638 6.77502 20.2218C6.77502 19.8798 6.90002 19.5841 7.15002 19.3348L14.475 12.0098L7.12502 4.65977C6.89169 4.42643 6.77502 4.13477 6.77502 3.78477C6.77502 3.43477 6.90002 3.13477 7.15002 2.88477C7.40002 2.63477 7.69602 2.50977 8.03802 2.50977C8.38002 2.50977 8.67569 2.63477 8.92502 2.88477L17.325 11.3098C17.425 11.4098 17.496 11.5181 17.538 11.6348C17.58 11.7514 17.6007 11.8764 17.6 12.0098C17.6 12.1431 17.579 12.2681 17.537 12.3848C17.495 12.5014 17.4244 12.6098 17.325 12.7098L8.90002 21.1348C8.66669 21.3681 8.37902 21.4848 8.03702 21.4848C7.69502 21.4848 7.39936 21.3598 7.15002 21.1098Z" fill="#1A2B56"/>
</svg>
